<?xml version="1.0" encoding="UTF-8"?>
<svg id="_Слой_2" data-name="Слой 2" xmlns="http://www.w3.org/2000/svg" viewBox="0 0 32 32">
  <defs>
    <style>
      .cls-1 {
        fill: #34d399;
      }

      .cls-1, .cls-2 {
        stroke-width: 0px;
      }

      .cls-3 {
        fill: none;
        stroke: #111827;
        stroke-miterlimit: 10;
      }

      .cls-2 {
        fill: #111827;
      }
    </style>
  </defs>
  <g id="_Слой_2-2" data-name=" Слой 2">
    <g id="_Слой_1-2" data-name=" Слой 1-2">
      <g>
        <rect class="cls-2" x=".5" y=".5" width="31" height="31" rx="11.5" ry="11.5"/>
        <path class="cls-2" d="m20,1c6.07,0,11,4.93,11,11v8c0,6.07-4.93,11-11,11h-8c-6.07,0-11-4.93-11-11v-8C1,5.93,5.93,1,12,1h8m0-1h-8C5.4,0,0,5.4,0,12v8c0,6.6,5.4,12,12,12h8c6.6,0,12-5.4,12-12v-8c0-6.6-5.4-12-12-12h0Z"/>
      </g>
      <g>
        <polygon class="cls-1" points="13.25 27.75 13.25 18.75 4.25 18.75 4.25 13.25 13.25 13.25 13.25 4.25 18.75 4.25 18.75 13.25 27.75 13.25 27.75 18.75 18.75 18.75 18.75 27.75 13.25 27.75"/>
        <path class="cls-1" d="m18.5,4.5v9h9v5h-9v9h-5v-9H4.5v-5h9V4.5h5m.5-.5h-6v9H4v6h9v9h6v-9h9v-6h-9V4h0Z"/>
      </g>
      <g>
        <path class="cls-1" d="m16.5,31.5v-10.5c0-2.48,2.02-4.5,4.5-4.5h10.5v15h-15Z"/>
        <path class="cls-2" d="m31,17v14h-14v-10c0-2.21,1.79-4,4-4h10m1-1h-11c-2.76,0-5,2.24-5,5v11h16v-16h0Z"/>
      </g>
      <g>
        <line class="cls-3" x1="19.82" y1="29" x2="28.18" y2="29"/>
        <line class="cls-3" x1="19.82" y1="26" x2="28.18" y2="26"/>
        <line class="cls-3" x1="19.82" y1="23" x2="28.18" y2="23"/>
        <line class="cls-3" x1="19.82" y1="20" x2="28.18" y2="20"/>
      </g>
    </g>
  </g>
</svg>